Patient4_TMGait_0pt7_01_left_05_GRF.mot
version=1
nRows=26
nColumns=19
inDegrees=no
endheader
time	F1x	F1y	F1z	M1x	M1y	M1z	F2x	F2y	F2z	M2x	M2y	M2z	EC1x	EC1y	EC1z	EC2x	EC2y	EC2z
5.8	27.0746	10.2736	3.4196	-2.7918	3.5581	-1.6379	-32.5449	744.4105	-75.7969	271.5916	83.7535	751.0731	-0.0592	0.0182	-0.0073	-0.0462	0.0165	0.9585
5.8113	17.9664	7.6455	2.5905	-2.2016	2.0586	-0.29545	-33.0903	753.2563	-69.7702	272.9763	78.6748	754.2673	-0.0592	0.0182	-0.0073	-0.0462	0.0165	0.9585
5.8226	10.3517	5.4659	1.7973	-1.7097	0.88064	0.86572	-33.4085	761.2848	-64.7775	274.3341	74.3824	756.5674	-0.0592	0.0182	-0.0073	-0.0462	0.0165	0.9585
5.8339	4.5581	3.8838	1.1368	-1.355	0.028232	1.8539	-33.3947	767.9245	-60.9767	275.5451	70.9761	757.6202	-0.0592	0.0182	-0.0073	-0.0462	0.0165	0.9585
5.8451	0.60444	2.8533	0.63494	-1.1265	-0.51715	2.5927	-32.988	772.9496	-58.3479	276.5204	68.4192	757.2813	-0.0592	0.0182	-0.0073	-0.0462	0.0165	0.9585
5.8564	-1.8611	2.2954	0.3072	-1.0025	-0.85303	3.162	-32.1139	776.3376	-56.6695	277.2	66.4935	755.5155	-0.0592	0.0182	-0.0073	-0.0462	0.0165	0.9585
5.8677	-3.1351	2.0352	0.099313	-0.94357	-1.0077	3.4932	-30.7506	778.2127	-55.7302	277.5513	65.0109	752.4034	-0.0592	0.0182	-0.0073	-0.0462	0.0165	0.9585
5.879	-3.6663	1.9504	0.016892	-0.91438	-1.093	3.6513	-28.8827	778.7265	-55.2858	277.5538	63.7565	748.0368	-0.0592	0.0182	-0.0073	-0.0462	0.0165	0.9585
5.8903	-3.6908	1.8536	-0.0037456	-0.86264	-1.1134	3.5328	-26.5351	778.0378	-55.128	277.1971	62.554	742.5358	-0.0592	0.0182	-0.0073	-0.0462	0.0165	0.9585
5.9016	-3.5313	1.6135	0.05065	-0.73992	-1.1563	3.1461	-23.738	776.2809	-55.0736	276.4748	61.2513	736.0051	-0.0592	0.0182	-0.0073	-0.0462	0.0165	0.9585
5.9129	-3.2817	1.0579	0.13484	-0.4907	-1.2088	2.3459	-20.5955	773.5019	-54.9386	275.3639	59.7093	728.4961	-0.0592	0.0182	-0.0073	-0.0462	0.0165	0.9585
5.9241	-3.091	0.072703	0.25403	-0.066204	-1.31	1.0887	-17.1968	769.6614	-54.63	273.8177	57.8737	719.9972	-0.0592	0.0182	-0.0073	-0.0462	0.0165	0.9585
5.9354	-2.9255	-1.4606	0.37057	0.57388	-1.4151	-0.7742	-13.6777	764.627	-54.0786	271.7665	55.7235	710.4123	-0.0592	0.0182	-0.0073	-0.0462	0.0165	0.9585
5.9467	-2.7891	-3.5558	0.46463	1.4348	-1.4974	-3.2122	-10.1197	758.2817	-53.3587	269.1463	53.358	699.6702	-0.0592	0.0182	-0.0073	-0.0462	0.0165	0.9585
5.958	-2.5454	-6.1144	0.49773	2.4688	-1.4664	-6.1404	-6.6101	750.6376	-52.5848	265.9476	50.9141	687.8292	-0.0592	0.0182	-0.0073	-0.0462	0.0165	0.9585
5.9693	-2.088	-8.7986	0.41485	3.5399	-1.2105	-9.1669	-3.2038	741.9184	-51.9589	262.2471	48.5974	675.1171	-0.0592	0.0182	-0.0073	-0.0462	0.0165	0.9585
5.9806	-1.212	-11.0015	0.1569	4.3977	-0.58226	-11.6538	0.067525	732.5898	-51.6818	258.2168	46.6012	661.9753	-0.0592	0.0182	-0.0073	-0.0462	0.0165	0.9585
5.9919	0.25394	-11.6754	-0.37208	4.6214	0.58835	-12.442	3.2192	723.1825	-51.9153	254.0721	45.0692	648.8591	-0.0592	0.0182	-0.0073	-0.0462	0.0165	0.9585
6.0031	2.4897	-9.333	-1.2413	3.6082	2.4513	-9.9162	6.2927	714.2189	-52.7569	250.0354	44.0898	636.2242	-0.0592	0.0182	-0.0073	-0.0462	0.0165	0.9585
6.0144	5.5954	-1.9522	-2.5455	0.54722	5.1377	-1.8513	9.3704	705.9912	-54.1533	246.2656	43.6081	624.3155	-0.0592	0.0182	-0.0073	-0.0462	0.0165	0.9585
6.0257	9.5032	12.8318	-4.272	-5.5117	8.6082	14.3438	12.5355	698.4823	-55.9595	242.8118	43.4894	613.144	-0.0592	0.0182	-0.0073	-0.0462	0.0165	0.9585
6.037	13.8896	37.5351	-6.3761	-15.5682	12.6582	41.4296	15.8782	691.199	-57.8883	239.5552	43.4703	602.2906	-0.0592	0.0182	-0.0073	-0.0462	0.0165	0.9585
6.0483	17.9808	74.1699	-8.5795	-30.4084	16.6698	81.6283	19.4207	683.1786	-59.5764	236.2016	43.2457	590.9902	-0.0592	0.0182	-0.0073	-0.0462	0.0165	0.9585
6.0596	20.4596	123.397	-10.4403	-50.2619	19.6037	135.6785	23.1715	673.0058	-60.608	232.2919	42.4754	578.0893	-0.0592	0.0182	-0.0073	-0.0462	0.0165	0.9585
6.0709	19.5122	183.4053	-11.1311	-74.3463	19.8457	201.6439	26.9995	659.0057	-60.5746	227.2611	40.8749	562.2707	-0.0592	0.0182	-0.0073	-0.0462	0.0165	0.9585
6.0821	14.0062	249.5009	-9.642	-100.701	15.8537	274.3929	30.7137	639.4381	-59.167	220.5069	38.2741	542.1571	-0.0592	0.0182	-0.0073	-0.0462	0.0165	0.9585
